<mxfile host="app.diagrams.net" modified="2022-08-16T06:26:48.322Z" agent="5.0 (Windows NT 10.0; Win64; x64) AppleWebKit/537.36 (KHTML, like Gecko) Chrome/104.0.0.0 Safari/537.36" etag="Oee0z2EqyOH85U0YFUpJ" version="20.0.4" type="github">
  <diagram id="ms5zZoXClKDJ1BqsMGg5" name="第 1 页">
    <mxGraphModel dx="2249" dy="762" grid="1" gridSize="10" guides="1" tooltips="1" connect="1" arrows="1" fold="1" page="1" pageScale="1" pageWidth="827" pageHeight="1169" math="0" shadow="0">
      <root>
        <mxCell id="0" />
        <mxCell id="1" parent="0" />
        <mxCell id="C9IggNt1_Gd7g77s1nxK-10" style="edgeStyle=orthogonalEdgeStyle;rounded=0;orthogonalLoop=1;jettySize=auto;html=1;entryX=0;entryY=0.5;entryDx=0;entryDy=0;entryPerimeter=0;" edge="1" parent="1" source="C9IggNt1_Gd7g77s1nxK-1" target="C9IggNt1_Gd7g77s1nxK-3">
          <mxGeometry relative="1" as="geometry" />
        </mxCell>
        <mxCell id="C9IggNt1_Gd7g77s1nxK-12" style="edgeStyle=orthogonalEdgeStyle;rounded=0;orthogonalLoop=1;jettySize=auto;html=1;entryX=0;entryY=0.5;entryDx=0;entryDy=0;entryPerimeter=0;" edge="1" parent="1" source="C9IggNt1_Gd7g77s1nxK-1" target="C9IggNt1_Gd7g77s1nxK-2">
          <mxGeometry relative="1" as="geometry" />
        </mxCell>
        <mxCell id="C9IggNt1_Gd7g77s1nxK-1" value="" style="fontColor=#0066CC;verticalAlign=top;verticalLabelPosition=bottom;labelPosition=center;align=center;html=1;outlineConnect=0;fillColor=#CCCCCC;strokeColor=#6881B3;gradientColor=none;gradientDirection=north;strokeWidth=2;shape=mxgraph.networks.desktop_pc;" vertex="1" parent="1">
          <mxGeometry x="200" y="300" width="80" height="90" as="geometry" />
        </mxCell>
        <mxCell id="C9IggNt1_Gd7g77s1nxK-2" value="" style="fontColor=#0066CC;verticalAlign=top;verticalLabelPosition=bottom;labelPosition=center;align=center;html=1;outlineConnect=0;fillColor=#CCCCCC;strokeColor=#6881B3;gradientColor=none;gradientDirection=north;strokeWidth=2;shape=mxgraph.networks.desktop_pc;" vertex="1" parent="1">
          <mxGeometry x="480" y="440" width="80" height="90" as="geometry" />
        </mxCell>
        <mxCell id="C9IggNt1_Gd7g77s1nxK-3" value="" style="fontColor=#0066CC;verticalAlign=top;verticalLabelPosition=bottom;labelPosition=center;align=center;html=1;outlineConnect=0;fillColor=#CCCCCC;strokeColor=#6881B3;gradientColor=none;gradientDirection=north;strokeWidth=2;shape=mxgraph.networks.desktop_pc;" vertex="1" parent="1">
          <mxGeometry x="480" y="160" width="80" height="90" as="geometry" />
        </mxCell>
        <mxCell id="C9IggNt1_Gd7g77s1nxK-7" style="edgeStyle=orthogonalEdgeStyle;rounded=0;orthogonalLoop=1;jettySize=auto;html=1;" edge="1" parent="1" source="C9IggNt1_Gd7g77s1nxK-4" target="C9IggNt1_Gd7g77s1nxK-1">
          <mxGeometry relative="1" as="geometry" />
        </mxCell>
        <mxCell id="C9IggNt1_Gd7g77s1nxK-4" value="" style="fontColor=#0066CC;verticalAlign=top;verticalLabelPosition=bottom;labelPosition=center;align=center;html=1;outlineConnect=0;fillColor=#CCCCCC;strokeColor=#6881B3;gradientColor=none;gradientDirection=north;strokeWidth=2;shape=mxgraph.networks.desktop_pc;" vertex="1" parent="1">
          <mxGeometry x="-50" y="470" width="80" height="90" as="geometry" />
        </mxCell>
        <mxCell id="C9IggNt1_Gd7g77s1nxK-9" style="edgeStyle=orthogonalEdgeStyle;rounded=0;orthogonalLoop=1;jettySize=auto;html=1;entryX=0;entryY=0.5;entryDx=0;entryDy=0;entryPerimeter=0;" edge="1" parent="1" source="C9IggNt1_Gd7g77s1nxK-5" target="C9IggNt1_Gd7g77s1nxK-1">
          <mxGeometry relative="1" as="geometry" />
        </mxCell>
        <mxCell id="C9IggNt1_Gd7g77s1nxK-5" value="" style="fontColor=#0066CC;verticalAlign=top;verticalLabelPosition=bottom;labelPosition=center;align=center;html=1;outlineConnect=0;fillColor=#CCCCCC;strokeColor=#6881B3;gradientColor=none;gradientDirection=north;strokeWidth=2;shape=mxgraph.networks.desktop_pc;" vertex="1" parent="1">
          <mxGeometry x="-50" y="300" width="80" height="90" as="geometry" />
        </mxCell>
        <mxCell id="C9IggNt1_Gd7g77s1nxK-8" style="edgeStyle=orthogonalEdgeStyle;rounded=0;orthogonalLoop=1;jettySize=auto;html=1;" edge="1" parent="1" source="C9IggNt1_Gd7g77s1nxK-6" target="C9IggNt1_Gd7g77s1nxK-1">
          <mxGeometry relative="1" as="geometry" />
        </mxCell>
        <mxCell id="C9IggNt1_Gd7g77s1nxK-6" value="" style="fontColor=#0066CC;verticalAlign=top;verticalLabelPosition=bottom;labelPosition=center;align=center;html=1;outlineConnect=0;fillColor=#CCCCCC;strokeColor=#6881B3;gradientColor=none;gradientDirection=north;strokeWidth=2;shape=mxgraph.networks.desktop_pc;" vertex="1" parent="1">
          <mxGeometry x="-50" y="150" width="80" height="90" as="geometry" />
        </mxCell>
        <mxCell id="C9IggNt1_Gd7g77s1nxK-13" value="cas1" style="text;html=1;strokeColor=none;fillColor=none;align=center;verticalAlign=middle;whiteSpace=wrap;rounded=0;" vertex="1" parent="1">
          <mxGeometry x="490" y="250" width="60" height="30" as="geometry" />
        </mxCell>
        <mxCell id="C9IggNt1_Gd7g77s1nxK-14" value="cas2" style="text;html=1;strokeColor=none;fillColor=none;align=center;verticalAlign=middle;whiteSpace=wrap;rounded=0;" vertex="1" parent="1">
          <mxGeometry x="490" y="530" width="60" height="30" as="geometry" />
        </mxCell>
        <mxCell id="C9IggNt1_Gd7g77s1nxK-15" value="Nginx" style="text;html=1;strokeColor=none;fillColor=none;align=center;verticalAlign=middle;whiteSpace=wrap;rounded=0;" vertex="1" parent="1">
          <mxGeometry x="270" y="360" width="60" height="30" as="geometry" />
        </mxCell>
        <mxCell id="C9IggNt1_Gd7g77s1nxK-16" value="芒果店长" style="text;html=1;strokeColor=none;fillColor=none;align=center;verticalAlign=middle;whiteSpace=wrap;rounded=0;" vertex="1" parent="1">
          <mxGeometry x="-40" y="120" width="60" height="30" as="geometry" />
        </mxCell>
        <mxCell id="C9IggNt1_Gd7g77s1nxK-17" value="亚马逊广告" style="text;html=1;strokeColor=none;fillColor=none;align=center;verticalAlign=middle;whiteSpace=wrap;rounded=0;" vertex="1" parent="1">
          <mxGeometry x="-110" y="330" width="60" height="30" as="geometry" />
        </mxCell>
        <mxCell id="C9IggNt1_Gd7g77s1nxK-18" value="shopee选品" style="text;html=1;strokeColor=none;fillColor=none;align=center;verticalAlign=middle;whiteSpace=wrap;rounded=0;" vertex="1" parent="1">
          <mxGeometry x="-40" y="570" width="60" height="30" as="geometry" />
        </mxCell>
      </root>
    </mxGraphModel>
  </diagram>
</mxfile>
